<svg width="171" height="127" viewBox="0 0 171 127" fill="none" xmlns="http://www.w3.org/2000/svg">
<g clip-path="url(#clip0_68_664)">
<path d="M3.6306 87.822C1.49079 87.822 -0.238576 89.6845 0.0242884 91.8127C1.98655 107.776 15.5633 120.131 32.0199 120.131C48.4766 120.131 62.0533 107.776 64.0156 91.8127C64.2785 89.6845 62.5491 87.822 60.4093 87.822H3.6306Z" fill="#D3C803"/>
<path d="M110.141 87.822C107.999 87.822 106.272 89.6845 106.535 91.815C108.497 107.776 122.074 120.131 138.531 120.131C154.987 120.131 168.564 107.776 170.526 91.8127C170.789 89.6845 169.06 87.822 166.92 87.822H110.141Z" fill="#D3C803"/>
<path d="M119.037 49.3667H101.536C97.9021 49.3667 94.9553 46.4135 94.9553 42.7717V6.61967C94.9553 -0.12548 86.0433 -2.52175 82.6744 3.31988L45.8158 67.2104C43.2794 71.6078 46.4453 77.1075 51.5135 77.1075H68.0232C71.6595 77.1075 74.6064 80.0607 74.6064 83.7024V120.273C74.6064 126.988 83.4515 129.41 86.8549 123.623L124.705 59.3122C127.295 54.9171 124.131 49.3667 119.037 49.3667Z" fill="#D3C803"/>
</g>
<defs>
<clipPath id="clip0_68_664">
<rect width="171" height="127" fill="white"/>
</clipPath>
</defs>
</svg>
