<svg width="188" height="69" viewBox="0 0 188 69" fill="none" xmlns="http://www.w3.org/2000/svg">
<g clip-path="url(#clip0_67_25)">
<path d="M94.66 30.89H80.64V7.92H94.66V10.36H83.41V18.06H94.01V20.5H83.41V28.46H94.66V30.9V30.89Z" fill="white"/>
<path d="M102.2 30.89H99.5701V13.91H102.2V16.67H102.33C102.75 15.7 103.33 14.94 104.09 14.37C104.85 13.8 105.86 13.51 107.13 13.51C108.88 13.51 110.27 14.07 111.29 15.2C112.31 16.33 112.82 17.93 112.82 19.99V30.88H110.19V20.45C110.19 18.94 109.87 17.8 109.22 17.03C108.57 16.26 107.61 15.88 106.34 15.88C105.64 15.88 104.97 16 104.33 16.23C103.69 16.46 103.18 16.82 102.78 17.3C102.39 17.78 102.19 18.39 102.19 19.11V30.89H102.2Z" fill="white"/>
<path d="M124.64 31.29C123.1 31.29 121.77 30.92 120.63 30.19C119.49 29.45 118.6 28.42 117.96 27.1C117.32 25.77 117.01 24.21 117.01 22.41C117.01 20.61 117.33 19.05 117.96 17.72C118.6 16.39 119.48 15.36 120.63 14.63C121.77 13.89 123.11 13.53 124.64 13.53C126.17 13.53 127.46 13.89 128.56 14.6C129.66 15.31 130.5 16.29 131.09 17.55C131.68 18.8 131.98 20.23 131.98 21.83V23.08H119.77V23.87C119.77 25.34 120.21 26.56 121.1 27.54C121.99 28.52 123.22 29 124.8 29C125.87 29 126.81 28.75 127.61 28.24C128.41 27.74 129.03 27.01 129.47 26.07L131.35 27.42C130.8 28.56 129.95 29.49 128.78 30.22C127.62 30.94 126.23 31.31 124.63 31.31L124.64 31.29ZM124.64 15.72C123.7 15.72 122.86 15.94 122.12 16.38C121.38 16.82 120.81 17.43 120.39 18.21C119.97 18.99 119.77 19.87 119.77 20.86V21.09H129.15V20.73C129.15 19.72 128.96 18.84 128.59 18.1C128.22 17.35 127.69 16.77 127.01 16.36C126.33 15.94 125.54 15.73 124.64 15.73V15.72Z" fill="white"/>
<path d="M138.96 30.89H136.33V13.91H138.96V17.04H139.12C139.32 16.49 139.62 15.98 140.04 15.51C140.46 15.04 140.99 14.65 141.65 14.36C142.31 14.07 143.1 13.92 144.02 13.92H145.04V16.55H143.49C142.55 16.55 141.73 16.68 141.05 16.93C140.37 17.18 139.85 17.52 139.49 17.93C139.13 18.35 138.95 18.83 138.95 19.38V30.9L138.96 30.89Z" fill="white"/>
<path d="M161.96 32.77C161.96 33.93 161.65 34.89 161.04 35.65C160.43 36.41 159.51 36.97 158.29 37.33C157.07 37.69 155.55 37.87 153.73 37.87C151.91 37.87 150.54 37.7 149.44 37.38C148.33 37.05 147.53 36.57 147.02 35.95C146.52 35.32 146.26 34.57 146.26 33.7C146.26 32.78 146.5 32.05 146.98 31.53C147.46 31 148.12 30.63 148.95 30.41V30.05C148.47 29.81 148.09 29.5 147.83 29.11C147.57 28.73 147.43 28.25 147.43 27.68C147.43 26.82 147.7 26.17 148.25 25.72C148.8 25.27 149.5 24.94 150.36 24.72V24.59C149.35 24.11 148.57 23.42 148.01 22.52C147.45 21.62 147.17 20.58 147.17 19.39C147.17 18.2 147.43 17.21 147.96 16.33C148.49 15.45 149.23 14.77 150.2 14.27C151.17 13.78 152.28 13.53 153.56 13.53C154.17 13.53 154.75 13.58 155.29 13.69C155.83 13.8 156.33 13.96 156.79 14.18V13.88C156.79 13.22 156.94 12.68 157.25 12.25C157.56 11.82 158.06 11.61 158.76 11.61H161.29V13.91H158.06V15C158.67 15.53 159.15 16.16 159.49 16.91C159.83 17.66 160 18.48 160 19.38C160 20.52 159.74 21.54 159.21 22.42C158.68 23.31 157.94 24 156.97 24.49C156 24.98 154.87 25.23 153.58 25.23C153.29 25.23 153.01 25.21 152.72 25.18C152.43 25.15 152.17 25.11 151.93 25.07C151.38 25.22 150.87 25.45 150.4 25.74C149.93 26.04 149.69 26.45 149.69 26.97C149.69 27.49 149.93 27.81 150.41 27.99C150.89 28.17 151.52 28.25 152.29 28.25H155.91C158.02 28.25 159.55 28.65 160.5 29.45C161.45 30.25 161.93 31.35 161.93 32.76L161.96 32.77ZM159.49 32.96C159.49 32.28 159.23 31.74 158.72 31.33C158.2 30.92 157.29 30.72 155.97 30.72H150.31C149.76 30.96 149.36 31.27 149.11 31.66C148.86 32.04 148.73 32.5 148.73 33.03C148.73 33.78 149.01 34.41 149.57 34.94C150.13 35.47 151.08 35.73 152.42 35.73H154.86C156.33 35.73 157.47 35.5 158.28 35.04C159.09 34.58 159.5 33.89 159.5 32.97L159.49 32.96ZM153.6 23.12C154.72 23.12 155.61 22.85 156.27 22.31C156.93 21.77 157.26 20.94 157.26 19.83V18.91C157.26 17.79 156.93 16.96 156.27 16.43C155.61 15.89 154.72 15.62 153.6 15.62C152.48 15.62 151.59 15.89 150.93 16.43C150.27 16.97 149.94 17.8 149.94 18.91V19.83C149.94 20.95 150.27 21.78 150.93 22.31C151.59 22.85 152.48 23.12 153.6 23.12Z" fill="white"/>
<path d="M166.34 9.93C165.79 9.93 165.39 9.79 165.12 9.52C164.86 9.25 164.72 8.89 164.72 8.45V8.02C164.72 7.58 164.85 7.23 165.12 6.95C165.39 6.67 165.79 6.54 166.34 6.54C166.89 6.54 167.32 6.68 167.57 6.95C167.82 7.22 167.95 7.58 167.95 8.02V8.45C167.95 8.89 167.82 9.25 167.57 9.52C167.32 9.8 166.91 9.93 166.34 9.93ZM165.02 30.89V13.91H167.65V30.89H165.02Z" fill="white"/>
<path d="M187.07 30.89H185.59C184.89 30.89 184.32 30.74 183.88 30.45C183.44 30.16 183.12 29.74 182.93 29.22C182.73 28.69 182.63 28.09 182.63 27.41V27.18L183.65 28.13H182.5C182.15 29.16 181.54 29.95 180.67 30.48C179.8 31.01 178.78 31.29 177.59 31.29C175.79 31.29 174.39 30.83 173.39 29.91C172.39 28.99 171.89 27.74 171.89 26.16C171.89 25.08 172.15 24.18 172.68 23.44C173.21 22.71 174 22.15 175.07 21.76C176.13 21.38 177.49 21.18 179.13 21.18H182.49V19.5C182.49 18.29 182.16 17.37 181.5 16.74C180.84 16.1 179.83 15.79 178.47 15.79C177.46 15.79 176.61 16.02 175.9 16.48C175.2 16.94 174.62 17.56 174.16 18.32L172.58 16.84C173.04 15.94 173.78 15.16 174.78 14.5C175.79 13.84 177.06 13.51 178.6 13.51C180.64 13.51 182.24 14.01 183.39 15.02C184.54 16.03 185.12 17.43 185.12 19.23V28.58H187.06V30.88L187.07 30.89ZM182.49 23.16H179C177.51 23.16 176.41 23.38 175.71 23.82C175.01 24.26 174.66 24.9 174.66 25.73V26.42C174.66 27.25 174.97 27.9 175.58 28.36C176.19 28.82 177.01 29.05 178.02 29.05C178.9 29.05 179.67 28.91 180.34 28.64C181.01 28.37 181.54 27.99 181.92 27.52C182.3 27.05 182.5 26.53 182.5 25.96V23.16H182.49Z" fill="white"/>
<path d="M81.6 35.78H93.58V52.13C93.58 53.54 93.28 54.77 92.68 55.82C92.08 56.87 91.21 57.69 90.08 58.28C88.95 58.86 87.6 59.15 86.02 59.15C83.76 59.15 82.01 58.56 80.77 57.37C79.53 56.19 78.75 54.63 78.42 52.7L83.09 51.78C83.27 52.75 83.59 53.49 84.08 54C84.56 54.52 85.19 54.77 85.96 54.77C86.68 54.77 87.3 54.54 87.82 54.08C88.34 53.62 88.59 52.89 88.59 51.9V39.8H81.61V35.79L81.6 35.78Z" fill="white"/>
<path d="M108.45 58.75V55.85H108.29C108 56.73 107.48 57.49 106.73 58.15C105.97 58.81 104.88 59.14 103.46 59.14C101.7 59.14 100.37 58.55 99.4501 57.36C98.5301 56.18 98.0701 54.5 98.0701 52.32V41.46H102.94V51.89C102.94 52.94 103.13 53.76 103.52 54.33C103.9 54.9 104.53 55.19 105.41 55.19C105.91 55.19 106.4 55.1 106.87 54.91C107.34 54.72 107.73 54.44 108.02 54.07C108.31 53.7 108.46 53.24 108.46 52.69V41.47H113.33V58.75H108.46H108.45Z" fill="white"/>
<path d="M123.72 59.15C122.05 59.15 120.65 58.88 119.51 58.34C118.37 57.8 117.35 57.04 116.45 56.05L119.31 53.15C119.92 53.83 120.6 54.37 121.35 54.76C122.1 55.15 122.94 55.35 123.88 55.35C124.82 55.35 125.51 55.2 125.89 54.91C126.26 54.61 126.45 54.21 126.45 53.71C126.45 53.27 126.31 52.94 126.04 52.72C125.77 52.5 125.32 52.35 124.71 52.26L122.83 52.03C121.54 51.85 120.45 51.55 119.59 51.11C118.72 50.67 118.08 50.08 117.65 49.35C117.22 48.62 117.01 47.73 117.01 46.7C117.01 45.03 117.61 43.68 118.82 42.64C120.03 41.6 121.66 41.08 123.72 41.08C124.93 41.08 125.95 41.18 126.78 41.39C127.61 41.6 128.34 41.91 128.97 42.31C129.6 42.72 130.19 43.2 130.76 43.77L127.96 46.63C127.41 46.08 126.79 45.65 126.1 45.33C125.41 45.01 124.7 44.85 123.98 44.85C123.17 44.85 122.58 44.98 122.22 45.24C121.86 45.5 121.68 45.85 121.68 46.29C121.68 46.75 121.81 47.11 122.06 47.36C122.31 47.61 122.79 47.79 123.49 47.9L125.43 48.16C127.32 48.4 128.74 48.96 129.69 49.82C130.64 50.69 131.12 51.87 131.12 53.36C131.12 54.46 130.81 55.44 130.2 56.32C129.59 57.2 128.72 57.88 127.62 58.38C126.51 58.87 125.21 59.12 123.72 59.12V59.15Z" fill="white"/>
<path d="M143.14 58.75H140.24C138.57 58.75 137.3 58.32 136.42 57.47C135.54 56.62 135.1 55.36 135.1 53.72V45.26H132.66V41.48H133.88C134.54 41.48 134.99 41.32 135.23 41C135.47 40.68 135.59 40.23 135.59 39.63V36.8H139.97V41.47H143.39V45.25H139.97V54.96H143.13V58.74L143.14 58.75Z" fill="white"/>
<path d="M162.26 58.75H159.56C158.97 58.75 158.41 58.6 157.9 58.31C157.38 58.01 156.97 57.58 156.67 56.99C156.36 56.41 156.21 55.71 156.21 54.9V54.47L157.26 55.72H156.08C155.82 56.84 155.24 57.69 154.34 58.27C153.44 58.85 152.33 59.14 151.02 59.14C149.29 59.14 147.96 58.67 147.04 57.74C146.12 56.81 145.66 55.6 145.66 54.1C145.66 52.87 145.96 51.86 146.57 51.07C147.17 50.28 148.03 49.69 149.14 49.29C150.25 48.89 151.56 48.7 153.07 48.7H155.8V47.61C155.8 46.78 155.58 46.11 155.14 45.62C154.7 45.13 153.97 44.88 152.94 44.88C151.97 44.88 151.21 45.09 150.64 45.51C150.07 45.93 149.6 46.4 149.22 46.93L146.32 44.36C147.02 43.33 147.91 42.52 148.99 41.94C150.06 41.36 151.5 41.07 153.3 41.07C155.74 41.07 157.57 41.61 158.81 42.7C160.05 43.79 160.67 45.35 160.67 47.39V54.96H162.28V58.74L162.26 58.75ZM155.77 51.48H153.4C152.46 51.48 151.74 51.64 151.26 51.97C150.78 52.3 150.54 52.78 150.54 53.42V53.91C150.54 54.53 150.74 54.99 151.13 55.29C151.53 55.6 152.08 55.75 152.81 55.75C153.36 55.75 153.85 55.67 154.29 55.52C154.73 55.37 155.08 55.12 155.36 54.8C155.63 54.47 155.77 54.04 155.77 53.52V51.48Z" fill="white"/>
<g clip-path="url(#clip1_67_25)">
<path d="M1.46489 44.2672C0.601459 44.2672 -0.0963574 45.0151 0.00971062 45.8697C0.801499 52.28 6.27982 57.2417 12.9202 57.2417C19.5607 57.2417 25.039 52.28 25.8308 45.8697C25.9368 45.0151 25.239 44.2672 24.3756 44.2672H1.46489Z" fill="#D3C803"/>
<path d="M44.4429 44.2672C43.5786 44.2672 42.8817 45.0151 42.9877 45.8706C43.7795 52.28 49.2579 57.2417 55.8983 57.2417C62.5387 57.2417 68.017 52.28 68.8088 45.8697C68.9149 45.0151 68.2171 44.2672 67.3536 44.2672H44.4429Z" fill="#D3C803"/>
<path d="M48.0325 28.8245H40.9706C39.5043 28.8245 38.3152 27.6385 38.3152 26.1761V11.6583C38.3152 8.94965 34.7191 7.98737 33.3598 10.3332L18.487 35.9901C17.4635 37.756 18.741 39.9645 20.786 39.9645H27.4479C28.9151 39.9645 30.1042 41.1504 30.1042 42.6128V57.2985C30.1042 59.9952 33.6733 60.9677 35.0466 58.6441L50.3195 32.8183C51.3643 31.0534 50.0878 28.8245 48.0325 28.8245Z" fill="#D3C803"/>
</g>
</g>
<defs>
<clipPath id="clip0_67_25">
<rect width="187.07" height="68.75" fill="white"/>
</clipPath>
<clipPath id="clip1_67_25">
<rect width="69" height="51" fill="white" transform="translate(0 9)"/>
</clipPath>
</defs>
</svg>
