<svg width="51" height="41" viewBox="0 0 51 41" fill="none" xmlns="http://www.w3.org/2000/svg">
<path d="M22.9114 11.3281C21.1926 10.7812 19.7864 9.375 19.552 7.57812C19.2395 5.07812 21.0364 2.96875 23.4583 2.65625V1.25C23.4583 0.625 24.0051 0 24.7083 0H25.9583C26.5833 0 27.2083 0.625 27.2083 1.25V2.65625C28.0676 2.8125 28.927 3.04688 29.6301 3.59375C30.177 3.90625 30.177 4.60938 29.7864 5L28.3801 6.40625C28.1458 6.64062 27.677 6.71875 27.2864 6.5625C27.052 6.40625 26.8176 6.32812 26.5051 6.32812H23.927C23.6145 6.32812 23.302 6.64062 23.302 7.03125C23.302 7.26562 23.4583 7.57812 23.7708 7.65625L27.677 8.75C29.3958 9.29688 30.802 10.7031 31.0364 12.5C31.3489 15 29.552 17.1094 27.2083 17.4219V18.75C27.2083 19.4531 26.5833 20 25.9583 20H24.7083C24.0051 20 23.4583 19.4531 23.4583 18.75V17.4219C22.5208 17.2656 21.6614 17.0312 20.9583 16.4844C20.4895 16.1719 20.4114 15.4688 20.802 15.0781L22.2083 13.6719C22.4426 13.4375 22.9114 13.3594 23.302 13.5156C23.5364 13.6719 23.8489 13.75 24.0833 13.75H26.6614C27.052 13.75 27.2864 13.4375 27.2864 13.0469C27.2864 12.7344 27.1301 12.5 26.8176 12.4219L22.9114 11.3281ZM45.0208 7.57812C48.0676 7.73438 50.3333 10.3906 50.3333 13.3594V28.2812C50.3333 30.3125 49.6301 32.1875 48.3801 33.75L43.7708 39.5312C43.5364 39.8438 43.2239 40 42.8333 40H41.5833C40.8801 40 40.3333 39.4531 40.3333 38.75C40.3333 38.2031 40.4895 37.6562 40.8801 37.1875L45.4895 31.4062C46.1926 30.5469 46.5833 29.4531 46.5833 28.2812V13.2031C46.5833 12.3438 45.9583 11.4844 45.0208 11.3281C43.8489 11.0938 42.8333 12.0312 42.8333 13.125C42.8333 13.125 42.7551 21.0156 42.7551 23.5156C42.7551 24.1406 42.5989 24.6875 42.2083 25.1562L36.1926 32.3438C35.6458 33.0469 34.3958 33.2812 33.6145 32.4219C33.0676 31.7969 33.0676 30.8594 33.5364 30.1562L37.4426 24.9219C38.0676 24.1406 37.9114 22.9688 37.052 22.2656C36.7395 22.0312 36.3489 21.875 35.9583 21.875C35.4114 21.875 34.7864 22.1875 34.4739 22.6562L28.8489 29.9219C28.1458 30.7812 27.8333 31.875 27.8333 32.9688V38.75C27.8333 39.4531 27.2083 40 26.5833 40H24.0833C23.3801 40 22.8333 39.4531 22.8333 38.75V32.9688C22.8333 31.875 22.4426 30.7812 21.7395 29.9219L16.1926 22.6562C15.802 22.1875 15.2551 21.875 14.7083 21.875C14.2395 21.875 13.8489 22.0312 13.5364 22.2656C12.677 22.8906 12.5208 24.1406 13.2239 24.9219L17.052 30.1562C17.5989 30.8594 17.5989 31.7969 16.9739 32.4219C16.2708 33.2031 15.0208 33.125 14.3958 32.3438L8.45825 25.1562C8.06763 24.6875 7.83325 24.1406 7.83325 23.5156C7.83325 21.0156 7.83325 13.125 7.83325 13.125C7.83325 12.0312 6.7395 11.0938 5.56763 11.3281C4.63013 11.4844 4.08325 12.3438 4.08325 13.2031V28.2812C4.08325 29.4531 4.39575 30.5469 5.177 31.4062L9.70825 37.1875C10.0989 37.6562 10.3333 38.2031 10.3333 38.8281C10.3333 39.4531 9.70825 40.0781 9.08325 40.0781H7.75513C7.3645 40.0781 7.052 39.8438 6.81763 39.5312L2.20825 33.75C0.958252 32.2656 0.333252 30.3125 0.333252 28.2812V13.3594C0.333252 10.3906 2.52075 7.73438 5.56763 7.57812C8.84888 7.34375 11.5833 9.92188 11.5833 13.125C11.5833 13.125 11.5833 16.1719 11.5833 19.0625C12.4426 18.5156 13.5364 18.125 14.7083 18.125C16.427 18.125 18.0676 18.9844 19.1614 20.3125L24.7083 27.6562C24.9426 27.8906 25.0989 28.2031 25.3333 28.5156C25.4895 28.2031 25.6458 27.8906 25.8801 27.6562L31.5051 20.3125C32.5208 18.9844 34.1614 18.125 35.9583 18.125C37.052 18.125 38.1458 18.5156 39.0051 19.0625C39.0051 16.1719 39.0833 13.125 39.0833 13.125C39.0833 9.92188 41.8176 7.34375 45.0208 7.57812Z" fill="#22B7F2"/>
</svg>
