<svg width="32" height="40" viewBox="0 0 32 40" fill="none" xmlns="http://www.w3.org/2000/svg">
<path d="M30.4531 13.125C31.1562 14.2969 31.1562 15.625 30.4531 16.7188L16.1562 38.3594C15.6094 39.375 14.4375 40 13.1094 40C12.0156 40 11 39.5312 10.2969 38.6719C9.67188 37.8125 9.4375 36.7188 9.67188 35.625L12.4062 23.75H4.75C3.65625 23.75 2.5625 23.2812 1.85938 22.5C1.15625 21.6406 0.84375 20.625 1 19.5312L5.0625 2.96875C5.29688 1.40625 6.78125 0 8.57812 0H18.8125C19.9062 0 20.9219 0.546875 21.625 1.40625C22.3281 2.34375 22.5625 3.4375 22.25 4.53125L19.9844 11.3281H27.4062C28.6562 11.3281 29.8281 12.0312 30.4531 13.125ZM13.5 35.7812L27.0938 15.0781H14.8281L18.5781 3.75H8.57812L4.67188 20H17.0938L13.5 35.7812Z" fill="#E2D603"/>
</svg>
