<svg width="40" height="40" viewBox="0 0 40 40" fill="none" xmlns="http://www.w3.org/2000/svg">
<path d="M39.0625 0.625C39.5312 0.625 40 1.09375 40 1.5625V16.5625C40 17.1094 39.5312 17.5 39.0625 17.5H24.0625C23.5156 17.5 23.125 17.1094 23.125 16.5625V14.4531C23.125 13.9062 23.5156 13.5156 24.0625 13.5156L33.9062 13.75C31.4844 8.4375 26.1719 4.6875 20 4.6875C12.5781 4.6875 6.48438 9.92188 5 16.7969C4.92188 17.2656 4.53125 17.5 4.0625 17.5H1.875C1.25 17.5 0.78125 17.0312 0.9375 16.4062C2.57812 7.42188 10.4688 0.625 20 0.625C26.7188 0.625 32.6562 4.14062 36.0938 9.29688L35.9375 1.64062C35.9375 1.09375 36.3281 0.625 36.875 0.625H39.0625ZM38.0469 22.5C38.6719 22.5 39.1406 23.0469 38.9844 23.6719C37.3438 32.6562 29.4531 39.375 20 39.375C13.2031 39.375 7.26562 35.9375 3.82812 30.7812L3.98438 38.4375C3.98438 38.9844 3.59375 39.375 3.04688 39.375H0.9375C0.390625 39.375 0 38.9844 0 38.4375V23.4375C0 22.9688 0.390625 22.5 0.9375 22.5H15.9375C16.4062 22.5 16.875 22.9688 16.875 23.4375V25.625C16.875 26.1719 16.4062 26.5625 15.8594 26.5625L6.01562 26.3281C8.4375 31.6406 13.75 35.3125 20 35.3125C27.3438 35.3125 33.4375 30.1562 34.9219 23.2812C35 22.8125 35.3906 22.5 35.8594 22.5H38.0469Z" fill="#E2D603"/>
</svg>
