<svg width="51" height="36" viewBox="0 0 51 36" fill="none" xmlns="http://www.w3.org/2000/svg">
<path d="M43.1665 15.5C39.6509 15.5 36.9165 12.7656 36.9165 9.25C36.9165 5.8125 39.6509 3 43.1665 3C46.604 3 49.4165 5.8125 49.4165 9.25C49.4165 12.7656 46.604 15.5 43.1665 15.5ZM43.1665 6.75C41.7603 6.75 40.6665 7.92188 40.6665 9.25C40.6665 10.6562 41.7603 11.75 43.1665 11.75C44.4946 11.75 45.6665 10.6562 45.6665 9.25C45.6665 7.92188 44.4946 6.75 43.1665 6.75ZM8.1665 15.5C4.65088 15.5 1.9165 12.7656 1.9165 9.25C1.9165 5.8125 4.65088 3 8.1665 3C11.604 3 14.4165 5.8125 14.4165 9.25C14.4165 12.7656 11.604 15.5 8.1665 15.5ZM8.1665 6.75C6.76025 6.75 5.6665 7.92188 5.6665 9.25C5.6665 10.6562 6.76025 11.75 8.1665 11.75C9.49463 11.75 10.6665 10.6562 10.6665 9.25C10.6665 7.92188 9.49463 6.75 8.1665 6.75ZM39.104 23.2344C40.0415 24.7188 40.6665 26.4375 40.5884 28.3125V31.75C40.5884 33.8594 38.9478 35.5 36.8384 35.5H14.3384C12.3071 35.5 10.5884 33.8594 10.5884 31.75V28.3125C10.5884 26.4375 11.2134 24.7188 12.1509 23.2344C14.2603 20.0312 18.479 18.8594 22.1509 20.0312C23.2446 20.3438 24.4165 20.5 25.5884 20.5C26.8384 20.5 28.0103 20.3438 29.104 20.0312C32.7759 18.8594 36.9165 20.1094 39.104 23.2344ZM36.9165 31.75V28.3125C36.9165 25.4219 34.5728 23.0781 31.7603 23C29.8071 23.8594 27.6978 24.25 25.6665 24.25C23.5571 24.25 21.4478 23.8594 19.4946 23C16.6821 23.0781 14.4165 25.4219 14.4165 28.3125V31.75H36.9165ZM44.104 18C47.6978 18 50.6665 20.9688 50.5884 24.5625C50.5884 25.6562 49.8071 26.4375 48.7134 26.4375C47.6978 26.4375 46.8384 25.6562 46.8384 24.5625C46.8384 23.0781 45.5884 21.75 44.0259 21.75H42.1509C41.8384 21.75 41.5259 21.9062 41.2134 21.9844C40.5103 20.8906 39.5728 19.9531 38.5571 19.1719C39.5728 18.4688 40.8228 18 42.229 18H44.104ZM25.6665 18C20.8228 18 16.9165 14.0938 16.9165 9.25C16.9165 4.48438 20.8228 0.5 25.6665 0.5C30.4321 0.5 34.4165 4.48438 34.4165 9.25C34.4165 14.0938 30.4321 18 25.6665 18ZM25.6665 4.25C22.854 4.25 20.6665 6.51562 20.6665 9.25C20.6665 12.0625 22.854 14.25 25.6665 14.25C28.4009 14.25 30.6665 12.0625 30.6665 9.25C30.6665 6.51562 28.4009 4.25 25.6665 4.25ZM12.6978 19.1719C11.6821 19.9531 10.7446 20.8906 10.0415 21.9844C9.729 21.9062 9.4165 21.75 9.104 21.75H7.229C5.6665 21.75 4.4165 23.0781 4.4165 24.5625C4.4165 25.6562 3.55713 26.4375 2.5415 26.4375C1.44775 26.4375 0.666504 25.6562 0.666504 24.5625C0.666504 20.9688 3.55713 18 7.229 18H9.104C10.4321 18 11.6821 18.4688 12.6978 19.1719Z" fill="#22B7F2"/>
</svg>
