<svg width="52" height="41" viewBox="0 0 52 41" fill="none" xmlns="http://www.w3.org/2000/svg">
<path d="M21 24.75C21 28.2656 16.4688 31 11 31C5.45312 31 1 28.2656 1 24.75C1 23.5 0.84375 24.125 7.64062 10.6094C8.26562 9.20312 9.59375 8.5 11 8.5C12.3281 8.5 13.6562 9.20312 14.2812 10.6094C21.1562 24.2031 20.9219 23.5781 20.9219 24.75H21ZM11 12.25C9.4375 15.375 5.76562 22.6406 5.29688 23.5H16.625C16.0781 22.5625 11 12.25 11 12.25ZM42.3281 14.2031C42.1719 14.8281 41.4688 15.2188 40.7656 14.9844L30.5312 11.5469C29.8281 12.3281 28.8906 12.875 27.875 13.1875V39.75C27.875 40.4531 27.25 41 26.625 41H9.75C9.04688 41 8.5 40.4531 8.5 39.75V38.5C8.5 37.875 9.04688 37.25 9.75 37.25H24.0469V13.1875C21.7812 12.4844 20.0625 10.4531 19.75 7.95312L9.98438 4.67188C9.28125 4.4375 8.96875 3.73438 9.20312 3.10938L9.59375 1.85938C9.75 1.23438 10.4531 0.921875 11.1562 1.07812L20.5312 4.28125C21.625 2.32812 23.6562 1 26 1C29.4375 1 32.25 3.8125 32.25 7.25C32.25 7.5625 32.1719 7.875 32.0938 8.10938L41.9375 11.3906C42.6406 11.625 42.9531 12.3281 42.7188 13.0312L42.3281 14.2031ZM26 9.75C27.3281 9.75 28.5 8.65625 28.5 7.25C28.5 5.92188 27.3281 4.75 26 4.75C24.5938 4.75 23.5 5.92188 23.5 7.25C23.5 8.65625 24.5938 9.75 26 9.75ZM50.9219 34.75H51C51 38.2656 46.4688 41 41 41C35.4531 41 31 38.2656 31 34.75C31 33.5 30.8438 34.125 37.6406 20.6094C38.2656 19.2031 39.5938 18.5 41 18.5C42.3281 18.5 43.6562 19.2031 44.2812 20.6094C51.1562 34.2031 50.9219 33.5781 50.9219 34.75ZM35.2969 33.5H46.625C46.0781 32.5625 42.4062 25.2188 41 22.3281V22.25C39.4375 25.375 35.7656 32.6406 35.2969 33.5Z" fill="#E2D603"/>
</svg>
