<svg width="50" height="40" viewBox="0 0 50 40" fill="none" xmlns="http://www.w3.org/2000/svg">
<path d="M44.375 28.75C47.4219 28.75 50 31.3281 50 34.375C50 37.5 47.4219 40 44.375 40C41.25 40 38.75 37.5 38.75 34.375C38.75 34.1406 38.75 33.9062 38.8281 33.6719L32.3438 30C30.7812 31.5625 28.5938 32.5 26.25 32.5C21.4062 32.5 17.5 28.5938 17.5 23.75C17.5 20.9375 18.8281 18.4375 20.9375 16.875L18.2812 11.25C18.2031 11.25 18.125 11.3281 18.125 11.3281C15 11.3281 12.5 8.75 12.5 5.70312C12.5 2.57812 15 0.078125 18.125 0.078125C21.1719 0.078125 23.75 2.57812 23.75 5.70312C23.75 7.34375 22.9688 8.82812 21.7969 9.84375L24.2969 15.2344C24.9219 15.1562 25.5469 15 26.25 15C31.0156 15 35 18.9844 35 23.75C35 24.8438 34.7656 25.8594 34.375 26.7969L40.4688 30.3125C41.4844 29.375 42.8125 28.75 44.375 28.75ZM18.125 7.5C19.1406 7.5 20 6.71875 20 5.625C20 4.60938 19.1406 3.75 18.125 3.75C17.0312 3.75 16.25 4.60938 16.25 5.625C16.25 6.71875 17.0312 7.5 18.125 7.5ZM26.25 28.75C28.9844 28.75 31.25 26.5625 31.25 23.75C31.25 21.0156 28.9844 18.75 26.25 18.75C23.4375 18.75 21.25 21.0156 21.25 23.75C21.25 26.5625 23.4375 28.75 26.25 28.75ZM44.375 36.25C45.3906 36.25 46.25 35.4688 46.25 34.375C46.25 33.3594 45.3906 32.5 44.375 32.5C43.2812 32.5 42.5 33.3594 42.5 34.375C42.5 35.4688 43.2812 36.25 44.375 36.25ZM40.0781 15.8594L36.3281 18.6719L34.8438 16.7188L38.5938 13.9062L40.0781 15.8594ZM45 15C42.1875 15 40 12.8125 40 10C40 7.26562 42.1875 5 45 5C47.7344 5 50 7.26562 50 10C50 12.8125 47.7344 15 45 15ZM11.875 25V22.5H15.625V25H11.875ZM5 18.75C7.73438 18.75 10 21.0156 10 23.75C10 26.5625 7.73438 28.75 5 28.75C2.1875 28.75 0 26.5625 0 23.75C0 21.0156 2.1875 18.75 5 18.75Z" fill="#E2D603"/>
</svg>
